<svg xmlns="http://www.w3.org/2000/svg" xmlns:xlink="http://www.w3.org/1999/xlink" width="512" zoomAndPan="magnify" viewBox="0 0 384 383.999986" height="512" preserveAspectRatio="xMidYMid meet" version="1.0"><defs><clipPath id="b6d51c3cd5"><path d="M 291 1.5 L 321 1.5 L 321 31 L 291 31 Z M 291 1.5 " clip-rule="nonzero"/></clipPath></defs><path fill="#5ce1e6" d="M 272.367188 124.886719 C 269.175781 125.902344 265.910156 127.0625 262.644531 128.226562 C 245.445312 134.394531 227.449219 142.375 208.945312 152.464844 C 205.96875 154.132812 202.992188 155.800781 200.019531 157.542969 C 184.707031 166.394531 169.105469 176.773438 153.359375 188.820312 C 147.695312 193.101562 142.035156 197.671875 136.375 202.460938 L 144.941406 182.433594 L 183.253906 92.957031 L 204.878906 143.101562 C 223.3125 133.085938 241.164062 125.175781 258.363281 118.9375 L 216.5625 26.269531 L 151.035156 26.269531 L 19.832031 317.773438 L -10.5 385.1875 L 58.148438 385.1875 C 58.148438 385.1875 58.148438 385.1875 58.148438 385.113281 C 58.800781 383.953125 70.777344 362.109375 92.183594 331.269531 C 119.394531 292.082031 161.921875 238.382812 215.765625 194.117188 C 218.523438 191.867188 221.207031 189.691406 224.039062 187.441406 C 239.785156 175.03125 256.476562 163.492188 273.964844 153.40625 C 276.941406 151.664062 279.914062 149.996094 282.890625 148.398438 C 328.972656 123.507812 380.421875 108.851562 435.789062 114.21875 C 436.007812 114.292969 366.777344 93.828125 272.367188 124.886719 Z M 272.367188 124.886719 " fill-opacity="1" fill-rule="nonzero"/><path fill="#f4f6fc" d="M 308.289062 229.3125 L 378.679688 385.257812 L 309.378906 385.257812 L 258.941406 268.351562 L 248.058594 239.253906 C 246.535156 240.921875 245.082031 242.664062 243.558594 244.40625 C 214.023438 278.65625 183.328125 324.375 154.589844 385.1875 C 154.589844 385.1875 154.589844 385.257812 154.589844 385.257812 L 90.875 385.257812 C 90.875 385.257812 206.476562 146.804688 410.171875 134.539062 C 406.183594 134.972656 347.765625 139.835938 295.226562 193.972656 C 294.210938 195.058594 292.90625 195.859375 291.742188 196.800781 L 298.492188 210.082031 Z M 308.289062 229.3125 " fill-opacity="1" fill-rule="nonzero"/><path fill="#f4f6fc" d="M 307.636719 93.683594 L 276.140625 93.683594 C 273.3125 93.683594 271.0625 91.359375 271.0625 88.605469 L 271.0625 57.109375 C 271.0625 54.277344 273.382812 52.03125 276.140625 52.03125 L 307.636719 52.03125 C 310.464844 52.03125 312.714844 54.351562 312.714844 57.109375 L 312.714844 88.605469 C 312.714844 91.433594 310.464844 93.683594 307.636719 93.683594 Z M 307.636719 93.683594 " fill-opacity="1" fill-rule="nonzero"/><path fill="#5ce1e6" d="M 356.691406 72.855469 L 335.140625 72.855469 C 333.179688 72.855469 331.65625 71.261719 331.65625 69.375 L 331.65625 47.820312 C 331.65625 45.863281 333.253906 44.335938 335.140625 44.335938 L 356.691406 44.335938 C 358.652344 44.335938 360.175781 45.933594 360.175781 47.820312 L 360.175781 69.375 C 360.246094 71.261719 358.652344 72.855469 356.691406 72.855469 Z M 356.691406 72.855469 " fill-opacity="1" fill-rule="nonzero"/><path fill="#f4f6fc" d="M 354.878906 30.257812 L 344.136719 30.257812 C 343.195312 30.257812 342.394531 29.460938 342.394531 28.519531 L 342.394531 17.777344 C 342.394531 16.835938 343.195312 16.035156 344.136719 16.035156 L 354.878906 16.035156 C 355.820312 16.035156 356.617188 16.835938 356.617188 17.777344 L 356.617188 28.519531 C 356.617188 29.460938 355.820312 30.257812 354.878906 30.257812 Z M 354.878906 30.257812 " fill-opacity="1" fill-rule="nonzero"/><g clip-path="url(#b6d51c3cd5)"><path fill="#5ce1e6" d="M 316.925781 30.257812 L 295.371094 30.257812 C 293.414062 30.257812 291.890625 28.664062 291.890625 26.777344 L 291.890625 5.222656 C 291.890625 3.265625 293.484375 1.742188 295.371094 1.742188 L 316.925781 1.742188 C 318.882812 1.742188 320.40625 3.335938 320.40625 5.222656 L 320.40625 26.777344 C 320.40625 28.664062 318.8125 30.257812 316.925781 30.257812 Z M 316.925781 30.257812 " fill-opacity="1" fill-rule="nonzero"/></g></svg>